<mxfile host="65bd71144e">
    <diagram id="RXReXIfMdzO95mileUZi" name="第 1 页">
        <mxGraphModel dx="972" dy="813" grid="1" gridSize="10" guides="1" tooltips="1" connect="1" arrows="1" fold="1" page="1" pageScale="1" pageWidth="827" pageHeight="1169" math="0" shadow="0">
            <root>
                <mxCell id="0"/>
                <mxCell id="1" parent="0"/>
                <mxCell id="2" value="Service time" style="rounded=0;whiteSpace=wrap;html=1;" vertex="1" parent="1">
                    <mxGeometry x="190" y="180" width="120" height="60" as="geometry"/>
                </mxCell>
                <mxCell id="3" value="Waiting time" style="rounded=0;whiteSpace=wrap;html=1;" vertex="1" parent="1">
                    <mxGeometry x="190" y="260" width="120" height="60" as="geometry"/>
                </mxCell>
                <mxCell id="4" value="Engine IDs" style="rounded=0;whiteSpace=wrap;html=1;" vertex="1" parent="1">
                    <mxGeometry x="190" y="340" width="120" height="60" as="geometry"/>
                </mxCell>
                <mxCell id="5" value="Threads Metadata" style="rounded=0;whiteSpace=wrap;html=1;" vertex="1" parent="1">
                    <mxGeometry x="190" y="420" width="120" height="60" as="geometry"/>
                </mxCell>
                <mxCell id="6" value="one task" style="ellipse;whiteSpace=wrap;html=1;" vertex="1" parent="1">
                    <mxGeometry x="190" y="90" width="120" height="60" as="geometry"/>
                </mxCell>
                <mxCell id="7" value="track of LLM calls" style="rounded=0;whiteSpace=wrap;html=1;" vertex="1" parent="1">
                    <mxGeometry x="380" y="420" width="120" height="60" as="geometry"/>
                </mxCell>
                <mxCell id="8" value="Most recent call arrival" style="rounded=0;whiteSpace=wrap;html=1;" vertex="1" parent="1">
                    <mxGeometry x="190" y="500" width="120" height="60" as="geometry"/>
                </mxCell>
            </root>
        </mxGraphModel>
    </diagram>
</mxfile>